HIERARCHY
ROOT Hips
{
	OFFSET 0.058547 100.481255 -0.522458
	CHANNELS 6 Xposition Yposition Zposition Xrotation Yrotation Zrotation 
	JOINT Spine
	{
		OFFSET -0.279214 12.230705 -2.892139
		CHANNELS 3 Xrotation Yrotation Zrotation
		JOINT Spine1
		{
			OFFSET -0.232678 10.192256 -1.242257
			CHANNELS 3 Xrotation Yrotation Zrotation
			JOINT Spine1_split
			{
				OFFSET -0.232678 10.192256 -1.242257
				CHANNELS 3 Xrotation Yrotation Zrotation
				JOINT Spine2
				{
					OFFSET -0.232678 10.192256 -1.242257
					CHANNELS 3 Xrotation Yrotation Zrotation
					JOINT Neck
					{
						OFFSET -0.418821 17.814224 8.416937
						CHANNELS 3 Xrotation Yrotation Zrotation
						JOINT Head
						{
							OFFSET 0.000000 7.031097 3.806764
							CHANNELS 3 Xrotation Yrotation Zrotation
							JOINT HeadTop_End
							{
								OFFSET 0.000000 24.646591 12.978601
								CHANNELS 3 Xrotation Yrotation Zrotation
								End Site
								{
									OFFSET 0.000000 0.000000 0.000000
								}
							}
						}
					}
					JOINT LeftShoulder
					{
						OFFSET 8.476512 7.247673 -3.868757
						CHANNELS 3 Xrotation Yrotation Zrotation
						JOINT LeftShoulder_split
						{
							OFFSET 8.476512 7.247673 -3.868757
							CHANNELS 3 Xrotation Yrotation Zrotation
							JOINT LeftArm
							{
								OFFSET 9.308996 -2.777740 0.208551
								CHANNELS 3 Xrotation Yrotation Zrotation
								JOINT LeftForeArm
								{
									OFFSET 29.972336 0.000015 0.000022
									CHANNELS 3 Xrotation Yrotation Zrotation
									JOINT LeftHand
									{
										OFFSET 26.026470 0.000015 0.000033
										CHANNELS 3 Xrotation Yrotation Zrotation
										JOINT LeftHandThumb1
										{
											OFFSET 12.240555 -7.117950 9.230400
											CHANNELS 3 Xrotation Yrotation Zrotation
											JOINT LeftHandThumb2
											{
												OFFSET 4.138626 -2.389450 2.389374
												CHANNELS 3 Xrotation Yrotation Zrotation
												JOINT LeftHandThumb3
												{
													OFFSET 2.726952 -1.574417 1.574393
													CHANNELS 3 Xrotation Yrotation Zrotation
													JOINT LeftHandThumb4
													{
														OFFSET 3.940979 -2.275375 2.275301
														CHANNELS 3 Xrotation Yrotation Zrotation
														End Site
														{
															OFFSET 0.000000 0.000000 0.000000
														}
													}
												}
											}
										}
										JOINT LeftHandIndex1
										{
											OFFSET 24.424660 -1.966187 5.959913
											CHANNELS 3 Xrotation Yrotation Zrotation
											JOINT LeftHandIndex2
											{
												OFFSET 6.426682 0.000015 0.000035
												CHANNELS 3 Xrotation Yrotation Zrotation
												JOINT LeftHandIndex3
												{
													OFFSET 5.337883 -0.000031 0.000035
													CHANNELS 3 Xrotation Yrotation Zrotation
													JOINT LeftHandIndex4
													{
														OFFSET 4.409393 -0.000015 0.000044
														CHANNELS 3 Xrotation Yrotation Zrotation
														End Site
														{
															OFFSET 0.000000 0.000000 0.000000
														}
													}
												}
											}
										}
										JOINT LeftHandMiddle1
										{
											OFFSET 23.810127 0.000000 0.000041
											CHANNELS 3 Xrotation Yrotation Zrotation
											JOINT LeftHandMiddle2
											{
												OFFSET 7.176491 -0.000015 0.000051
												CHANNELS 3 Xrotation Yrotation Zrotation
												JOINT LeftHandMiddle3
												{
													OFFSET 6.774864 -0.000015 0.000032
													CHANNELS 3 Xrotation Yrotation Zrotation
													JOINT LeftHandMiddle4
													{
														OFFSET 5.402740 -0.027710 -0.077597
														CHANNELS 3 Xrotation Yrotation Zrotation
														End Site
														{
															OFFSET 0.000000 0.000000 0.000000
														}
													}
												}
											}
										}
										JOINT LeftHandRing1
										{
											OFFSET 22.908371 -0.858917 -6.017762
											CHANNELS 3 Xrotation Yrotation Zrotation
											JOINT LeftHandRing2
											{
												OFFSET 6.337524 0.000000 -0.000050
												CHANNELS 3 Xrotation Yrotation Zrotation
												JOINT LeftHandRing3
												{
													OFFSET 5.779289 0.000000 -0.000029
													CHANNELS 3 Xrotation Yrotation Zrotation
													JOINT LeftHandRing4
													{
														OFFSET 4.965714 0.000031 -0.000057
														CHANNELS 3 Xrotation Yrotation Zrotation
														End Site
														{
															OFFSET 0.000000 0.000000 0.000000
														}
													}
												}
											}
										}
										JOINT LeftHandPinky1
										{
											OFFSET 20.036995 -1.565994 -10.945109
											CHANNELS 3 Xrotation Yrotation Zrotation
											JOINT LeftHandPinky2
											{
												OFFSET 5.254700 -0.000015 0.000002
												CHANNELS 3 Xrotation Yrotation Zrotation
												JOINT LeftHandPinky3
												{
													OFFSET 4.810226 -0.000015 -0.000019
													CHANNELS 3 Xrotation Yrotation Zrotation
													JOINT LeftHandPinky4
													{
														OFFSET 3.647247 0.000015 -0.000044
														CHANNELS 3 Xrotation Yrotation Zrotation
														End Site
														{
															OFFSET 0.000000 0.000000 0.000000
														}
													}
												}
											}
										}
									}
								}
							}
						}
					}
					JOINT RightShoulder
					{
						OFFSET -7.570480 7.247673 -3.868757
						CHANNELS 3 Xrotation Yrotation Zrotation
						JOINT RightShoulder_split
						{
							OFFSET -7.570480 7.247673 -3.868757
							CHANNELS 3 Xrotation Yrotation Zrotation
							JOINT RightArm
							{
								OFFSET -9.309000 -2.777725 0.208549
								CHANNELS 3 Xrotation Yrotation Zrotation
								JOINT RightForeArm
								{
									OFFSET -29.972336 0.000061 -0.000048
									CHANNELS 3 Xrotation Yrotation Zrotation
									JOINT RightHand
									{
										OFFSET -26.026474 0.000092 0.000017
										CHANNELS 3 Xrotation Yrotation Zrotation
										JOINT RightHandThumb1
										{
											OFFSET -12.240570 -7.117905 9.230402
											CHANNELS 3 Xrotation Yrotation Zrotation
											JOINT RightHandThumb2
											{
												OFFSET -4.138580 -2.389465 2.389442
												CHANNELS 3 Xrotation Yrotation Zrotation
												JOINT RightHandThumb3
												{
													OFFSET -2.726990 -1.574402 1.574351
													CHANNELS 3 Xrotation Yrotation Zrotation
													JOINT RightHandThumb4
													{
														OFFSET -3.940971 -2.275345 2.275330
														CHANNELS 3 Xrotation Yrotation Zrotation
														End Site
														{
															OFFSET 0.000000 0.000000 0.000000
														}
													}
												}
											}
										}
										JOINT RightHandIndex1
										{
											OFFSET -24.424667 -1.966171 5.959853
											CHANNELS 3 Xrotation Yrotation Zrotation
											JOINT RightHandIndex2
											{
												OFFSET -6.426682 -0.000046 0.000010
												CHANNELS 3 Xrotation Yrotation Zrotation
												JOINT RightHandIndex3
												{
													OFFSET -5.337891 0.000015 0.000031
													CHANNELS 3 Xrotation Yrotation Zrotation
													JOINT RightHandIndex4
													{
														OFFSET -4.409386 0.000015 0.000044
														CHANNELS 3 Xrotation Yrotation Zrotation
														End Site
														{
															OFFSET 0.000000 0.000000 0.000000
														}
													}
												}
											}
										}
										JOINT RightHandMiddle1
										{
											OFFSET -23.810127 -0.000015 -0.000027
											CHANNELS 3 Xrotation Yrotation Zrotation
											JOINT RightHandMiddle2
											{
												OFFSET -7.176491 -0.000046 -0.000001
												CHANNELS 3 Xrotation Yrotation Zrotation
												JOINT RightHandMiddle3
												{
													OFFSET -6.774857 -0.000046 0.000038
													CHANNELS 3 Xrotation Yrotation Zrotation
													JOINT RightHandMiddle4
													{
														OFFSET -5.402740 -0.027740 -0.077594
														CHANNELS 3 Xrotation Yrotation Zrotation
														End Site
														{
															OFFSET 0.000000 0.000000 0.000000
														}
													}
												}
											}
										}
										JOINT RightHandRing1
										{
											OFFSET -22.908348 -0.858963 -6.017824
											CHANNELS 3 Xrotation Yrotation Zrotation
											JOINT RightHandRing2
											{
												OFFSET -6.337524 0.000046 -0.000019
												CHANNELS 3 Xrotation Yrotation Zrotation
												JOINT RightHandRing3
												{
													OFFSET -5.779289 0.000046 -0.000004
													CHANNELS 3 Xrotation Yrotation Zrotation
													JOINT RightHandRing4
													{
														OFFSET -4.965721 -0.000031 -0.000032
														CHANNELS 3 Xrotation Yrotation Zrotation
														End Site
														{
															OFFSET 0.000000 0.000000 0.000000
														}
													}
												}
											}
										}
										JOINT RightHandPinky1
										{
											OFFSET -20.036957 -1.566071 -10.945158
											CHANNELS 3 Xrotation Yrotation Zrotation
											JOINT RightHandPinky2
											{
												OFFSET -5.254700 0.000031 -0.000025
												CHANNELS 3 Xrotation Yrotation Zrotation
												JOINT RightHandPinky3
												{
													OFFSET -4.810226 -0.000015 -0.000048
													CHANNELS 3 Xrotation Yrotation Zrotation
													JOINT RightHandPinky4
													{
														OFFSET -3.647247 -0.000031 -0.000029
														CHANNELS 3 Xrotation Yrotation Zrotation
														End Site
														{
															OFFSET 0.000000 0.000000 0.000000
														}
													}
												}
											}
										}
									}
								}
							}
						}
					}
				}
			}
		}
	}
	JOINT LeftUpLeg
	{
		OFFSET 15.427091 -6.655090 0.678631
		CHANNELS 3 Xrotation Yrotation Zrotation
		JOINT LeftLeg
		{
			OFFSET 4.088469 -39.590321 13.023970
			CHANNELS 3 Xrotation Yrotation Zrotation
			JOINT LeftFoot
			{
				OFFSET -4.073973 -37.708702 -15.979749
				CHANNELS 3 Xrotation Yrotation Zrotation
				JOINT LeftToeBase
				{
					OFFSET 5.346369 -15.068922 20.645004
					CHANNELS 3 Xrotation Yrotation Zrotation
					JOINT LeftToe_End
					{
						OFFSET 2.754658 0.931270 11.300900
						CHANNELS 3 Xrotation Yrotation Zrotation
						End Site
						{
							OFFSET 0.000000 0.000000 0.000000
						}
					}
				}
			}
		}
	}
	JOINT RightUpLeg
	{
		OFFSET -15.569522 -6.655090 0.678631
		CHANNELS 3 Xrotation Yrotation Zrotation
		JOINT RightLeg
		{
			OFFSET -4.074467 -39.591820 13.023795
			CHANNELS 3 Xrotation Yrotation Zrotation
			JOINT RightFoot
			{
				OFFSET 4.088761 -37.707176 -15.979579
				CHANNELS 3 Xrotation Yrotation Zrotation
				JOINT RightToeBase
				{
					OFFSET -5.346370 -15.068919 20.645004
					CHANNELS 3 Xrotation Yrotation Zrotation
					JOINT RightToe_End
					{
						OFFSET -2.754656 0.931271 11.300900
						CHANNELS 3 Xrotation Yrotation Zrotation
						End Site
						{
							OFFSET 0.000000 0.000000 0.000000
						}
					}
				}
			}
		}
	}
}
MOTION
Frames: 4
Frame Time: 0.016667
-0.750381 114.883850 -3.415726 88.605333 9.739907 4.423837 2.303240 6.375666 -2.710151 5.204479 12.461950 -7.272590 0.000000 0.000000 0.000000 5.204479 12.461933 -7.272587 -13.925054 -2.201564 -7.202084 1.344868 -28.177995 -3.371371 -0.000001 0.000000 -0.000001 -0.946209 7.997310 -0.528401 0.000000 0.000000 0.000000 12.506706 -42.387228 10.138832 -24.046099 -115.712639 -11.702800 30.912582 18.361492 66.805274 -37.692611 -0.277377 -33.537786 4.883651 10.111105 4.674668 -0.000500 -0.000618 0.000249 0.000001 0.000002 0.000001 6.932552 6.482957 -62.890005 -7.454711 3.285465 -38.739651 -0.000002 0.000001 0.000001 -0.000001 -0.000002 -0.000000 2.446075 4.832679 -70.799951 -4.784257 1.284556 -40.841383 0.002108 -0.822892 0.293758 0.000001 0.000002 0.000000 3.154028 8.638754 -64.771162 -0.452336 -0.533639 -62.179891 0.000002 -0.001150 -0.000001 -0.000000 -0.000000 0.000000 7.503572 3.610295 -80.739700 1.234995 -6.612638 -36.477503 -0.000001 -0.000001 0.000001 -0.000001 -0.000001 0.000000 3.795533 21.519201 -8.226327 0.000000 0.000000 0.000000 -77.521855 23.772147 41.544776 -0.003418 24.900836 -0.002812 3.528202 -4.261749 5.221908 -32.243742 0.622225 23.695765 3.588560 -9.529179 -1.612066 -0.000498 -0.000088 -0.000971 0.000001 0.000000 0.000002 3.610943 5.472062 -16.428225 -0.306054 -0.501988 17.209001 0.000002 -0.000001 -0.000000 -0.000002 -0.000003 -0.000001 -0.503278 -8.231466 -14.929426 -1.589126 0.698864 22.196573 0.002107 0.822899 -0.293760 -0.000001 0.000002 0.000002 -6.448863 -22.521391 -6.494322 0.346975 2.935535 22.041652 -0.000001 0.000003 0.000002 -0.000001 0.000002 0.000002 9.338150 -22.947108 23.675918 0.126964 5.998242 18.861021 0.000002 -0.000006 0.000002 -0.000001 0.000001 0.000001 -13.977023 -14.978272 10.723975 21.515202 6.691103 -0.813710 18.831902 -7.263735 -20.331684 -6.651835 -0.037731 0.077024 0.000001 -0.000000 -0.000000 -14.682875 -53.745314 -21.918328 12.539257 0.865341 0.875718 15.497571 31.117700 21.533951 11.283676 -0.256433 0.499916 0.000001 -0.000000 -0.000001 
-0.737535 114.882065 -3.505175 88.569904 9.814272 4.409797 2.301457 6.388590 -2.712166 5.197626 12.488348 -7.248143 0.000000 0.000000 0.000000 5.197636 12.488354 -7.248145 -13.955265 -2.219522 -7.151894 1.354287 -28.234291 -3.403385 -0.000001 -0.000000 -0.000001 -0.954758 8.031876 -0.539150 0.000000 0.000000 0.000000 12.557292 -42.627416 10.259047 -24.176633 -115.539371 -11.784698 30.883663 18.265847 66.739090 -37.779928 -0.417223 -33.592479 4.846998 10.037747 4.698257 -0.000503 -0.000616 0.000249 -0.000001 0.000002 0.000001 6.827649 6.468767 -62.692790 -7.450485 3.282347 -38.671230 -0.000001 0.000000 -0.000001 -0.000000 -0.000000 0.000003 2.386096 4.862448 -70.558709 -4.784791 1.284479 -40.852434 0.002109 -0.822892 0.293757 -0.000001 0.000000 0.000001 3.118197 8.687319 -64.694958 -0.451786 -0.534583 -62.192759 0.000001 -0.001150 -0.000000 -0.000001 0.000001 0.000001 7.423922 3.670932 -80.470126 1.233575 -6.608982 -36.441921 -0.000000 -0.000001 0.000000 -0.000000 -0.000001 -0.000000 3.828881 21.676116 -8.271100 0.000000 0.000000 0.000000 -77.496023 23.745842 41.707095 -0.003326 25.159540 -0.002966 3.284624 -4.247197 5.469568 -32.074357 0.391575 23.978706 3.602512 -9.560483 -1.605707 -0.000499 -0.000088 -0.000972 0.000001 0.000000 0.000002 3.610828 5.367278 -16.610250 -0.309598 -0.495448 17.101226 -0.000002 -0.000000 -0.000001 -0.000004 0.000001 -0.000001 -0.502031 -8.255756 -15.030890 -1.590093 0.699021 22.213952 0.002105 0.822897 -0.293762 -0.000000 -0.000000 -0.000001 -6.383693 -22.450654 -6.151759 0.347002 2.940426 22.084843 0.000001 -0.000000 -0.000000 -0.000002 0.000002 -0.000002 9.388055 -23.020360 23.774717 0.127476 5.999670 18.870155 0.000001 -0.000008 0.000000 0.000000 0.000000 0.000001 -13.961983 -14.878589 10.734408 21.305488 5.998055 -0.814487 18.679719 -7.005934 -20.853162 -6.834860 -0.038059 0.077402 0.000001 0.000000 -0.000000 -14.630088 -53.873127 -21.901169 12.599460 0.868716 0.874084 15.506777 31.072528 21.650769 11.263171 -0.256309 0.499804 -0.000000 0.000001 0.000001 
-0.722690 114.878502 -3.589780 88.519812 9.914218 4.384275 2.301971 6.400483 -2.711786 5.194858 12.512797 -7.217787 0.000000 0.000000 0.000000 5.194860 12.512802 -7.217784 -14.001813 -2.230701 -7.110236 1.358265 -28.274085 -3.435003 0.000000 -0.000000 -0.000001 -0.964030 8.078119 -0.554969 0.000000 0.000000 0.000000 12.608469 -42.927630 10.375207 -24.344602 -115.348289 -11.903832 30.864091 18.163484 66.655113 -37.859127 -0.543293 -33.643203 4.809348 9.962322 4.722458 -0.000501 -0.000619 0.000251 0.000002 -0.000001 0.000000 6.727295 6.453230 -62.510137 -7.445759 3.278914 -38.595582 -0.000001 0.000001 0.000001 -0.000001 0.000000 0.000002 2.326775 4.891560 -70.319215 -4.784996 1.284477 -40.856457 0.002109 -0.822893 0.293754 0.000000 0.000001 -0.000000 3.081251 8.736028 -64.612456 -0.451471 -0.535126 -62.200047 0.000002 -0.001151 -0.000001 -0.000000 -0.000000 0.000000 7.353894 3.727793 -80.212546 1.232372 -6.605884 -36.411872 -0.000000 0.000000 0.000002 -0.000000 0.000000 0.000003 3.867151 21.852232 -8.327388 0.000000 0.000000 0.000000 -77.474392 23.722350 41.892081 -0.003174 25.434986 -0.003174 3.059016 -4.231748 5.729567 -31.914199 0.185216 24.231112 3.616472 -9.591793 -1.599342 -0.000498 -0.000086 -0.000969 0.000002 0.000000 0.000003 3.608322 5.274200 -16.764856 -0.310012 -0.490569 16.965326 0.000000 -0.000000 -0.000003 -0.000003 -0.000002 -0.000000 -0.495484 -8.270433 -15.121528 -1.591537 0.699430 22.237218 0.002111 0.822894 -0.293765 -0.000004 -0.000003 -0.000001 -6.319388 -22.376366 -5.813390 0.347043 2.945614 22.130607 0.000000 0.000003 0.000003 -0.000002 -0.000002 0.000002 9.433934 -23.104314 23.853563 0.126719 5.997620 18.854428 0.000000 -0.000006 -0.000001 0.000001 0.000000 0.000002 -13.936879 -14.776658 10.752344 21.081872 5.306394 -0.814184 18.533093 -6.755136 -21.346201 -7.039601 -0.038431 0.077816 0.000001 -0.000000 0.000001 -14.517273 -53.929234 -21.828538 12.635186 0.872357 0.872388 15.433972 31.020646 21.832843 11.236672 -0.256174 0.499677 0.000000 0.000001 0.000001 
-0.705877 114.872986 -3.671404 88.448313 10.038771 4.346222 2.306714 6.410610 -2.707782 5.199914 12.533867 -7.180042 0.000000 0.000000 0.000000 5.199923 12.533871 -7.180049 -14.056938 -2.234071 -7.075662 1.342322 -28.280455 -3.466636 0.000000 0.000000 0.000000 -0.973356 8.134299 -0.577455 0.000000 0.000000 0.000000 12.647895 -43.284220 10.472032 -24.540813 -115.143548 -12.051340 30.860260 18.057927 66.548705 -37.919342 -0.635220 -33.686076 4.773288 9.889809 4.745660 -0.000501 -0.000617 0.000249 -0.000001 -0.000001 0.000001 6.638584 6.435754 -62.362926 -7.440863 3.275315 -38.517216 -0.000000 -0.000000 -0.000001 0.000000 -0.000000 0.000002 2.276103 4.918896 -70.089393 -4.784399 1.284535 -40.844863 0.002108 -0.822894 0.293751 -0.000001 0.000000 -0.000001 3.043105 8.784790 -64.523349 -0.452019 -0.534217 -62.187588 0.000001 -0.001152 -0.000004 0.000001 0.000000 -0.000002 7.293975 3.774859 -79.994725 1.231317 -6.603180 -36.385651 0.000000 -0.000000 0.000002 0.000000 -0.000000 0.000003 3.911024 22.045286 -8.396925 0.000000 0.000000 0.000000 -77.483196 23.678575 42.087612 -0.002974 25.710026 -0.003495 2.857750 -4.227126 5.958225 -31.780399 0.068415 24.346231 3.630408 -9.623095 -1.592970 -0.000498 -0.000086 -0.000972 0.000001 -0.000001 0.000000 3.590336 5.169377 -16.881617 -0.304113 -0.488950 16.772639 0.000000 0.000001 0.000001 -0.000004 -0.000003 0.000001 -0.486416 -8.280467 -15.276340 -1.593397 0.700030 22.265102 0.002107 0.822896 -0.293764 -0.000002 -0.000001 0.000001 -6.281021 -22.354420 -5.554148 0.347078 2.950651 22.175094 -0.000002 0.000001 -0.000001 -0.000001 0.000001 -0.000000 9.461390 -23.179772 23.888411 0.123488 5.988903 18.790803 0.000003 -0.000006 0.000004 0.000002 -0.000003 0.000002 -13.893291 -14.677645 10.781223 20.847059 4.612970 -0.813078 18.385665 -6.520347 -21.826069 -7.261931 -0.038839 0.078275 -0.000000 0.000000 0.000000 -14.324903 -53.909153 -21.691433 12.639478 0.876924 0.870798 15.259297 30.950107 22.131020 11.206135 -0.255999 0.499495 -0.000000 -0.000000 0.000001 
